%
T1C.15F0S0
X139000Y139000
X144000Y139000
X143000Y139000
X145000Y139000
X142000Y139000
X141200Y139900
X140800Y139900
X145000Y140000
X142000Y140000
X144000Y140000
X143000Y140000
X140000Y140000
X145000Y141000
X143000Y141000
X142000Y141000
X143900Y141000
X141000Y141000
X140000Y141000
X139950Y141850
X142000Y142000
X141000Y142000
X139000Y142000
X144850Y142950
X140000Y143000
X141000Y143000
X139000Y143000
X143650Y143650
X140000Y144000
X139000Y144000
X141000Y144000
X142900Y144900
X140000Y145000
X141000Y145000
X139000Y145000
X145000Y145150
X139900Y145900
X141000Y146000
X139000Y146000
X142000Y146000
X141100Y147000
X142000Y147000
X139000Y147000
X140000Y147100
X144600Y147250
X141000Y148000
X142000Y148000
X139000Y148000
X140000Y148100
X139900Y148900
X141000Y149000
X142000Y149000
X144400Y149250
X139000Y149700
X139000Y150300
X141000Y151000
X140000Y151000
X144500Y151500
X141000Y151900
X142000Y152000
X139900Y152000
X139000Y152000
X141100Y152900
X140000Y153000
X139000Y153000
X144700Y153050
X140000Y154000
X142000Y154000
X141000Y154000
X139000Y154000
X139000Y155000
X144900Y155000
X140000Y155000
X143000Y155300
X139000Y155700
X141000Y156000
X140000Y156000
X139000Y156200
X143600Y156400
X140000Y157000
X144700Y157000
X139000Y157000
X141000Y157000
X140000Y158000
X142000Y158000
X142800Y158100
X139900Y158800
X144000Y158900
X141000Y159000
X145000Y159000
X143000Y159000
X139900Y159200
X145000Y160000
X143950Y160000
X142000Y160000
X140000Y160000
X143000Y160000
X140800Y160100
X141200Y160100
X143900Y160900
X144900Y160900
X139000Y161000
X142000Y161000
X145400Y161000
X146000Y161000
X148700Y161000
X149200Y161000
X147000Y161000
X150500Y161000
X147900Y160100
X150000Y160000
X151000Y160000
X146000Y160000
X147100Y159900
X150100Y159100
X148000Y159000
X151000Y159000
X147000Y159000
X149100Y158900
X148000Y158000
X149000Y158000
X146000Y158000
X150500Y157000
X149200Y155600
X150500Y155600
X147150Y155350
X149800Y154800
X148000Y154650
X145750Y154300
X149000Y154000
X150000Y154000
X148000Y154000
X151000Y154000
X150000Y153000
X147000Y153000
X148000Y153000
X149000Y153000
X151000Y153000
X146000Y152000
X150000Y152000
X147000Y152000
X148000Y152000
X149000Y152000
X151000Y152000
X146000Y151000
X150000Y151000
X148000Y151000
X147000Y151000
X149000Y151000
X151000Y151000
X145900Y150100
X147000Y150000
X148000Y150000
X149000Y150000
X150000Y150000
X151000Y150000
X146000Y149000
X150000Y149000
X147000Y149000
X148000Y149000
X149000Y149000
X151000Y149000
X150000Y148000
X149000Y148000
X148000Y148000
X147000Y148000
X151000Y148000
X146000Y148000
X150000Y147500
X150000Y147000
X149000Y147000
X148000Y147000
X147000Y147000
X151000Y147000
X147948Y146058
X151000Y146050
X149100Y146000
X150200Y145950
X149800Y145850
X145750Y145800
X150000Y145200
X146850Y144700
X148650Y144450
X149450Y143200
X150500Y143200
X146450Y143050
X148050Y143000
X148000Y142000
X146150Y141050
X148000Y141000
X149000Y141000
X151000Y141000
X150100Y140100
X147000Y140000
X146000Y140000
X149000Y140000
X151000Y140000
X148000Y140000
X146000Y139000
X150000Y139000
X147300Y139000
X151000Y139000
X148000Y139000
X158000Y139000
X156000Y139000
X154000Y139000
X153000Y139000
X152000Y139000
X157000Y139000
X152000Y140000
X154000Y140000
X158000Y140000
X157000Y140000
X156000Y140000
X155000Y140000
X154000Y141000
X156000Y141000
X152000Y141000
X156800Y141050
X157900Y141100
X152000Y142000
X153400Y143000
X152000Y143000
X154900Y143100
X156400Y143600
X152500Y144600
X156950Y144650
X154900Y145150
X154300Y145850
X158000Y146050
X152052Y146058
X158000Y146950
X153000Y147000
X152000Y147000
X155400Y147350
X154000Y148000
X152000Y148000
X153000Y148000
X158000Y148000
X154000Y149000
X152000Y149000
X153000Y149000
X155600Y149200
X156900Y149500
X153000Y150000
X152000Y150000
X154000Y150000
X156950Y150500
X154000Y151000
X153000Y151000
X152000Y151000
X155550Y151300
X157000Y151850
X154000Y152000
X152000Y152000
X153000Y152000
X156900Y152800
X155350Y152850
X152000Y153000
X153000Y153000
X152000Y154000
X157950Y154050
X154200Y154200
X152400Y154600
X154850Y154900
X157100Y155100
X152350Y155450
X156400Y156400
X155350Y156750
X152600Y156950
X151850Y157950
X152950Y158000
X158000Y158000
X156900Y158850
X153800Y158950
X157850Y158950
X155800Y158950
X155000Y159000
X152000Y159500
X154800Y159900
X153800Y159950
X157000Y160000
X155950Y160000
X153000Y160000
X158000Y160000
X155100Y160200
X156900Y160900
X151700Y161000
X152200Y161000
X158000Y161000
X154000Y161000
X153000Y161000
X161000Y161000
X159250Y160050
X158750Y160050
X160000Y160000
X160100Y159100
X159000Y159000
X160100Y158100
X161000Y158000
X160000Y157000
X160900Y156900
X159000Y156000
X161000Y156000
X160000Y156000
X161000Y155000
X160000Y155000
X161000Y154000
X159000Y154000
X159100Y153100
X161000Y153000
X160000Y153000
X158100Y152100
X160000Y152000
X161000Y152000
X158950Y151850
X159000Y151000
X159950Y150950
X161000Y150300
X161000Y149700
X159000Y149500
X160000Y149000
X159000Y148000
X161000Y148000
X160000Y148000
X158950Y147150
X161000Y147000
X160000Y146900
X161000Y146000
X160000Y146000
X161000Y145000
X160000Y145000
X159000Y144900
X161000Y144000
X159000Y144000
X160000Y143000
X161000Y143000
X159000Y143000
X161000Y142000
X160000Y142000
X159000Y142000
X160100Y141200
X159000Y141000
X160100Y140800
X160000Y140000
X159200Y139900
X158800Y139900
X161000Y139000
M30
