*
*
G04 PADS 9.5 Build Number: 522968 generated Gerber (RS-274-X) file*
G04 PC Version=2.1*
*
%IN "UCSD001-BGA_5mm_2014-03"*%
*
%MOMM*%
*
%FSLAX33Y33*%
*
*
*
*
G04 PC Standard Apertures*
*
*
G04 Thermal Relief Aperture macro.*
%AMTER*
1,1,$1,0,0*
1,0,$1-$2,0,0*
21,0,$3,$4,0,0,45*
21,0,$3,$4,0,0,135*
%
*
*
G04 Annular Aperture macro.*
%AMANN*
1,1,$1,0,0*
1,0,$2,0,0*
%
*
*
G04 Odd Aperture macro.*
%AMODD*
1,1,$1,0,0*
1,0,$1-0.005,0,0*
%
*
*
G04 PC Custom Aperture Macros*
*
*
*
*
*
*
G04 PC Aperture Table*
*
%ADD010C,0.0254*%
%ADD013C,0.05*%
%ADD018C,0.1*%
%ADD019C,0.3*%
%ADD023C,0.08814*%
%ADD024C,0.1778*%
%ADD025C,0.7*%
%ADD032C,0.35*%
%ADD033C,0.6*%
*
*
*
*
G04 PC Circuitry*
G04 Layer Name UCSD001-BGA_5mm_2014-03 - circuitry*
%LPD*%
*
*
G04 PC Custom Flashes*
G04 Layer Name UCSD001-BGA_5mm_2014-03 - flashes*
%LPD*%
*
*
G04 PC Circuitry*
G04 Layer Name UCSD001-BGA_5mm_2014-03 - circuitry*
%LPD*%
*
G54D10*
G54D13*
G01X162762Y130828D02*
Y130500D01*
Y130828D02*
X162864D01*
X162864D02*
X162898Y130812D01*
X162898D02*
X162910Y130796D01*
X162910D02*
X162921Y130765D01*
X162921D02*
Y130734D01*
X162921D02*
X162910Y130703D01*
X162898Y130687*
X162898D02*
X162864Y130671D01*
X162864D02*
X162762D01*
X162842D02*
X162921Y130500D01*
X163023Y130828D02*
Y130500D01*
Y130828D02*
X163171D01*
X163023Y130671D02*
X163114D01*
X163023Y130500D02*
X163171D01*
X163273Y130828D02*
X163364Y130500D01*
X163455Y130828D02*
X163364Y130500D01*
X152762Y127828D02*
Y127500D01*
Y127828D02*
X152842D01*
X152876Y127812*
X152876D02*
X152898Y127781D01*
X152898D02*
X152910Y127750D01*
X152921Y127703*
X152921D02*
Y127625D01*
X152921D02*
X152910Y127578D01*
X152898Y127546*
X152898D02*
X152876Y127515D01*
X152876D02*
X152842Y127500D01*
X152762*
X153023Y127828D02*
Y127500D01*
Y127828D02*
X153126D01*
X153160Y127812*
X153160D02*
X153171Y127796D01*
X153171D02*
X153182Y127765D01*
X153182D02*
Y127734D01*
X153182D02*
X153171Y127703D01*
X153171D02*
X153160Y127687D01*
X153160D02*
X153126Y127671D01*
X153126D02*
X153023D01*
X153103D02*
X153182Y127500D01*
X153376Y127828D02*
X153285Y127500D01*
X153376Y127828D02*
X153467Y127500D01*
X153319Y127609D02*
X153432D01*
X153569Y127828D02*
X153626Y127500D01*
X153682Y127828D02*
X153626Y127500D01*
X153682Y127828D02*
X153739Y127500D01*
X153796Y127828D02*
X153739Y127500D01*
X153898Y127828D02*
Y127500D01*
X154001Y127828D02*
Y127500D01*
Y127828D02*
X154160Y127500D01*
Y127828D02*
Y127500D01*
X154432Y127750D02*
X154421Y127781D01*
X154421D02*
X154398Y127812D01*
X154398D02*
X154376Y127828D01*
X154330*
X154330D02*
X154307Y127812D01*
X154307D02*
X154285Y127781D01*
X154273Y127750*
X154273D02*
X154262Y127703D01*
Y127625*
X154273Y127578*
X154273D02*
X154285Y127546D01*
X154285D02*
X154307Y127515D01*
X154307D02*
X154330Y127500D01*
X154330D02*
X154376D01*
X154398Y127515*
X154398D02*
X154421Y127546D01*
X154421D02*
X154432Y127578D01*
X154432D02*
Y127625D01*
X154376D02*
X154432D01*
X154796Y127828D02*
Y127500D01*
X154796D02*
X154932D01*
X155126Y127828D02*
X155035Y127500D01*
X155126Y127828D02*
X155217Y127500D01*
X155069Y127609D02*
X155182D01*
X155319Y127828D02*
X155410Y127671D01*
X155410D02*
Y127500D01*
X155501Y127828D02*
X155410Y127671D01*
X155603Y127828D02*
Y127500D01*
Y127828D02*
X155751D01*
X155603Y127671D02*
X155694D01*
X155603Y127500D02*
X155751D01*
X155853Y127828D02*
Y127500D01*
Y127828D02*
X155955D01*
X155955D02*
X155989Y127812D01*
X155989D02*
X156001Y127796D01*
X156001D02*
X156012Y127765D01*
X156012D02*
Y127734D01*
X156001Y127703*
X155989Y127687*
X155989D02*
X155955Y127671D01*
X155955D02*
X155853D01*
X155932D02*
X156012Y127500D01*
X146262Y130828D02*
Y130500D01*
Y130828D02*
X146364D01*
X146364D02*
X146398Y130812D01*
X146398D02*
X146410Y130796D01*
X146410D02*
X146421Y130765D01*
X146421D02*
Y130718D01*
X146421D02*
X146410Y130687D01*
X146410D02*
X146398Y130671D01*
X146398D02*
X146364Y130656D01*
X146364D02*
X146262D01*
X146614Y130828D02*
X146523Y130500D01*
X146614Y130828D02*
X146705Y130500D01*
X146557Y130609D02*
X146671D01*
X146807Y130828D02*
Y130500D01*
Y130828D02*
X146910D01*
X146944Y130812*
X146944D02*
X146955Y130796D01*
X146955D02*
X146967Y130765D01*
X146967D02*
Y130734D01*
X146955Y130703*
X146955D02*
X146944Y130687D01*
X146944D02*
X146910Y130671D01*
X146910D02*
X146807D01*
X146887D02*
X146967Y130500D01*
X147148Y130828D02*
Y130500D01*
X147069Y130828D02*
X147228D01*
X147592D02*
Y130500D01*
Y130828D02*
X147751Y130500D01*
Y130828D02*
Y130500D01*
X147921Y130828D02*
X147898Y130812D01*
X147898D02*
X147876Y130781D01*
X147864Y130750*
X147864D02*
X147853Y130703D01*
Y130625*
X147864Y130578*
X147864D02*
X147876Y130546D01*
X147876D02*
X147898Y130515D01*
X147898D02*
X147921Y130500D01*
X147921D02*
X147967D01*
X147989Y130515*
X147989D02*
X148012Y130546D01*
X148012D02*
X148023Y130578D01*
X148023D02*
X148035Y130625D01*
Y130703*
X148023Y130750*
X148023D02*
X148012Y130781D01*
X147989Y130812*
X147989D02*
X147967Y130828D01*
X147921*
X148148Y130531D02*
X148137Y130515D01*
X148137D02*
X148148Y130500D01*
X148148D02*
X148160Y130515D01*
X148160D02*
X148148Y130531D01*
X139353Y127828D02*
X139262Y127500D01*
X139353Y127828D02*
X139444Y127500D01*
X139296Y127609D02*
X139410D01*
X139546Y127828D02*
Y127500D01*
Y127828D02*
X139648D01*
X139648D02*
X139682Y127812D01*
X139682D02*
X139694Y127796D01*
X139694D02*
X139705Y127765D01*
X139705D02*
Y127734D01*
X139705D02*
X139694Y127703D01*
X139682Y127687*
X139682D02*
X139648Y127671D01*
X139648D02*
X139546D01*
X139626D02*
X139705Y127500D01*
X139887Y127828D02*
Y127500D01*
X139807Y127828D02*
X139967D01*
X140069D02*
X140126Y127500D01*
X140182Y127828D02*
X140126Y127500D01*
X140182Y127828D02*
X140239Y127500D01*
X140296Y127828D02*
X140239Y127500D01*
X140467Y127828D02*
X140444Y127812D01*
X140444D02*
X140421Y127781D01*
X140421D02*
X140410Y127750D01*
X140398Y127703*
X140398D02*
Y127625D01*
X140398D02*
X140410Y127578D01*
X140421Y127546*
X140421D02*
X140444Y127515D01*
X140444D02*
X140467Y127500D01*
X140512*
X140535Y127515*
X140535D02*
X140557Y127546D01*
X140557D02*
X140569Y127578D01*
X140580Y127625*
X140580D02*
Y127703D01*
X140580D02*
X140569Y127750D01*
X140557Y127781*
X140557D02*
X140535Y127812D01*
X140535D02*
X140512Y127828D01*
X140467*
X140682D02*
Y127500D01*
Y127828D02*
X140785D01*
X140819Y127812*
X140819D02*
X140830Y127796D01*
X140830D02*
X140842Y127765D01*
X140842D02*
Y127734D01*
X140830Y127703*
X140830D02*
X140819Y127687D01*
X140819D02*
X140785Y127671D01*
X140785D02*
X140682D01*
X140762D02*
X140842Y127500D01*
X140944Y127828D02*
Y127500D01*
X141103Y127828D02*
X140944Y127609D01*
X141001Y127687D02*
X141103Y127500D01*
X141467Y127828D02*
Y127500D01*
Y127828D02*
X141626Y127500D01*
Y127828D02*
Y127500D01*
X141819Y127828D02*
X141728Y127500D01*
X141819Y127828D02*
X141910Y127500D01*
X141762Y127609D02*
X141876D01*
X142012Y127828D02*
Y127500D01*
Y127828D02*
X142103Y127500D01*
X142194Y127828D02*
X142103Y127500D01*
X142194Y127828D02*
Y127500D01*
X142296Y127828D02*
Y127500D01*
Y127828D02*
X142444D01*
X142296Y127671D02*
X142387D01*
X142296Y127500D02*
X142444D01*
X139262Y130828D02*
Y130500D01*
Y130828D02*
X139342D01*
X139376Y130812*
X139376D02*
X139398Y130781D01*
X139398D02*
X139410Y130750D01*
X139421Y130703*
X139421D02*
Y130625D01*
X139421D02*
X139410Y130578D01*
X139398Y130546*
X139398D02*
X139376Y130515D01*
X139376D02*
X139342Y130500D01*
X139262*
X139614Y130828D02*
X139523Y130500D01*
X139614Y130828D02*
X139705Y130500D01*
X139557Y130609D02*
X139671D01*
X139887Y130828D02*
Y130500D01*
X139807Y130828D02*
X139967D01*
X140069D02*
Y130500D01*
Y130828D02*
X140217D01*
X140069Y130671D02*
X140160D01*
X140069Y130500D02*
X140217D01*
X135432Y127750D02*
X135421Y127781D01*
X135421D02*
X135398Y127812D01*
X135398D02*
X135376Y127828D01*
X135330*
X135330D02*
X135307Y127812D01*
X135307D02*
X135285Y127781D01*
X135273Y127750*
X135273D02*
X135262Y127703D01*
Y127625*
X135273Y127578*
X135273D02*
X135285Y127546D01*
X135285D02*
X135307Y127515D01*
X135307D02*
X135330Y127500D01*
X135330D02*
X135376D01*
X135398Y127515*
X135398D02*
X135421Y127546D01*
X135421D02*
X135432Y127578D01*
X135535Y127828D02*
Y127500D01*
X135694Y127828D02*
Y127500D01*
X135535Y127671D02*
X135694D01*
X135796Y127828D02*
Y127500D01*
X135955Y127828D02*
X135796Y127609D01*
X135853Y127687D02*
X135955Y127500D01*
X136057Y127828D02*
Y127500D01*
Y127828D02*
X136137D01*
X136171Y127812*
X136171D02*
X136194Y127781D01*
X136205Y127750*
X136205D02*
X136217Y127703D01*
Y127625*
X136205Y127578*
X136205D02*
X136194Y127546D01*
X136194D02*
X136171Y127515D01*
X136171D02*
X136137Y127500D01*
X136057*
X136580Y127828D02*
Y127500D01*
Y127828D02*
X136682D01*
X136682D02*
X136717Y127812D01*
X136717D02*
X136728Y127796D01*
X136728D02*
X136739Y127765D01*
X136739D02*
Y127734D01*
X136739D02*
X136728Y127703D01*
X136717Y127687*
X136717D02*
X136682Y127671D01*
X136580D02*
X136682D01*
X136682D02*
X136717Y127656D01*
X136728Y127640*
X136728D02*
X136739Y127609D01*
X136739D02*
Y127562D01*
X136739D02*
X136728Y127531D01*
X136717Y127515*
X136717D02*
X136682Y127500D01*
X136682D02*
X136580D01*
X136842Y127828D02*
X136932Y127671D01*
X136932D02*
Y127500D01*
X137023Y127828D02*
X136932Y127671D01*
X135262Y130828D02*
Y130500D01*
Y130828D02*
X135342D01*
X135376Y130812*
X135376D02*
X135398Y130781D01*
X135398D02*
X135410Y130750D01*
X135421Y130703*
X135421D02*
Y130625D01*
X135421D02*
X135410Y130578D01*
X135398Y130546*
X135398D02*
X135376Y130515D01*
X135376D02*
X135342Y130500D01*
X135262*
X135523Y130828D02*
Y130500D01*
Y130828D02*
X135626D01*
X135660Y130812*
X135660D02*
X135671Y130796D01*
X135671D02*
X135682Y130765D01*
X135682D02*
Y130734D01*
X135682D02*
X135671Y130703D01*
X135671D02*
X135660Y130687D01*
X135660D02*
X135626Y130671D01*
X135626D02*
X135523D01*
X135603D02*
X135682Y130500D01*
X135785Y130828D02*
Y130500D01*
Y130828D02*
X135944Y130500D01*
Y130828D02*
Y130500D01*
X136307Y130828D02*
Y130500D01*
Y130828D02*
X136410D01*
X136444Y130812*
X136444D02*
X136455Y130796D01*
X136455D02*
X136467Y130765D01*
X136467D02*
Y130734D01*
X136455Y130703*
X136455D02*
X136444Y130687D01*
X136444D02*
X136410Y130671D01*
X136307D02*
X136410D01*
X136410D02*
X136444Y130656D01*
X136455Y130640*
X136455D02*
X136467Y130609D01*
Y130562*
X136467D02*
X136455Y130531D01*
X136455D02*
X136444Y130515D01*
X136444D02*
X136410Y130500D01*
X136307*
X136569Y130828D02*
X136660Y130671D01*
X136660D02*
Y130500D01*
X136751Y130828D02*
X136660Y130671D01*
G54D18*
X150000Y139000D02*
X150500Y139500D01*
X135000Y128500D02*
X138762D01*
Y131410*
X135000*
Y128500*
Y125500D02*
X138762D01*
Y128500*
X135000*
Y125500*
X138762Y128500D02*
X145762D01*
Y131410*
X138762*
Y128500*
Y125500D02*
X152262D01*
Y128500*
Y125500D02*
X165762D01*
Y128500*
X152262*
Y125500*
X145762Y128500D02*
X162262D01*
Y131410*
X145762*
Y128500*
X134999Y131410D02*
X165762D01*
Y133000*
X134999*
X134999D02*
Y131410D01*
Y133000D02*
X165762D01*
Y136000*
X134999*
X134999D02*
Y133000D01*
X163762Y128500D02*
X165762D01*
Y131410*
X162262*
Y128500*
X135762Y129820D02*
Y129000D01*
Y129820D02*
X135961D01*
X136046Y129781*
X136046D02*
X136103Y129703D01*
X136131Y129625*
X136131D02*
X136160Y129507D01*
X136160D02*
Y129312D01*
X136160D02*
X136131Y129195D01*
X136131D02*
X136103Y129117D01*
X136046Y129039*
X136046D02*
X135961Y129000D01*
X135762*
X136415Y129820D02*
X136557Y129000D01*
X136699Y129820D02*
X136557Y129000D01*
X136699Y129820D02*
X136842Y129000D01*
X136984Y129820D02*
X136842Y129000D01*
X137637Y129703D02*
X137580Y129781D01*
X137580D02*
X137495Y129820D01*
X137381*
X137381D02*
X137296Y129781D01*
X137296D02*
X137239Y129703D01*
X137239D02*
Y129625D01*
X137239D02*
X137268Y129546D01*
X137268D02*
X137296Y129507D01*
X137296D02*
X137353Y129468D01*
X137353D02*
X137523Y129390D01*
X137523D02*
X137580Y129351D01*
X137580D02*
X137609Y129312D01*
X137609D02*
X137637Y129234D01*
Y129117*
X137580Y129039*
X137580D02*
X137495Y129000D01*
X137381*
X137381D02*
X137296Y129039D01*
X137296D02*
X137239Y129117D01*
X147682Y132656D02*
Y132187D01*
X147682D02*
X147705Y132093D01*
X147705D02*
X147751Y132031D01*
X147819Y132000*
X147864*
X147864D02*
X147932Y132031D01*
X147932D02*
X147978Y132093D01*
X147978D02*
X148001Y132187D01*
X148001D02*
Y132656D01*
X148546Y132500D02*
X148523Y132562D01*
X148523D02*
X148478Y132625D01*
X148432Y132656*
X148432D02*
X148342D01*
X148296Y132625*
X148296D02*
X148251Y132562D01*
X148251D02*
X148228Y132500D01*
X148205Y132406*
X148205D02*
Y132250D01*
X148205D02*
X148228Y132156D01*
X148251Y132093*
X148251D02*
X148296Y132031D01*
X148296D02*
X148342Y132000D01*
X148432*
X148432D02*
X148478Y132031D01*
X148523Y132093*
X148523D02*
X148546Y132156D01*
X149069Y132562D02*
X149023Y132625D01*
X149023D02*
X148955Y132656D01*
X148955D02*
X148864D01*
X148864D02*
X148796Y132625D01*
X148796D02*
X148751Y132562D01*
X148751D02*
Y132500D01*
X148773Y132437*
X148773D02*
X148796Y132406D01*
X148796D02*
X148842Y132375D01*
X148978Y132312*
X148978D02*
X149023Y132281D01*
X149023D02*
X149046Y132250D01*
X149046D02*
X149069Y132187D01*
X149069D02*
Y132093D01*
X149069D02*
X149023Y132031D01*
X149023D02*
X148955Y132000D01*
X148955D02*
X148864D01*
X148864D02*
X148796Y132031D01*
X148796D02*
X148751Y132093D01*
X149273Y132656D02*
Y132000D01*
Y132656D02*
X149432D01*
X149432D02*
X149501Y132625D01*
X149546Y132562*
X149546D02*
X149569Y132500D01*
X149592Y132406*
Y132250*
X149569Y132156*
X149546Y132093*
X149546D02*
X149501Y132031D01*
X149432Y132000*
X149432D02*
X149273D01*
X150319Y132656D02*
Y132000D01*
Y132656D02*
X150523D01*
X150523D02*
X150592Y132625D01*
X150614Y132593*
X150614D02*
X150637Y132531D01*
Y132468*
X150637D02*
X150614Y132406D01*
X150614D02*
X150592Y132375D01*
X150523Y132343*
X150319D02*
X150523D01*
X150523D02*
X150592Y132312D01*
X150592D02*
X150614Y132281D01*
X150614D02*
X150637Y132218D01*
X150637D02*
Y132125D01*
X150614Y132062*
X150614D02*
X150592Y132031D01*
X150523Y132000*
X150523D02*
X150319D01*
X151182Y132500D02*
X151160Y132562D01*
X151160D02*
X151114Y132625D01*
X151114D02*
X151069Y132656D01*
X150978*
X150932Y132625*
X150932D02*
X150887Y132562D01*
X150887D02*
X150864Y132500D01*
X150864D02*
X150842Y132406D01*
Y132250*
X150864Y132156*
X150864D02*
X150887Y132093D01*
X150887D02*
X150932Y132031D01*
X150932D02*
X150978Y132000D01*
X151069*
X151114Y132031*
X151114D02*
X151160Y132093D01*
X151160D02*
X151182Y132156D01*
X151182D02*
Y132250D01*
X151069D02*
X151182D01*
X151569Y132656D02*
X151387Y132000D01*
X151569Y132656D02*
X151751Y132000D01*
X151455Y132218D02*
X151682D01*
X138245Y134984D02*
Y134281D01*
X138279Y134140*
X138279D02*
X138347Y134046D01*
X138347D02*
X138449Y134000D01*
X138449D02*
X138518D01*
X138620Y134046*
X138620D02*
X138688Y134140D01*
X138688D02*
X138722Y134281D01*
X138722D02*
Y134984D01*
X139029Y134656D02*
Y134000D01*
Y134468D02*
X139131Y134609D01*
X139131D02*
X139199Y134656D01*
X139199D02*
X139302D01*
X139370Y134609*
X139404Y134468*
X139404D02*
Y134000D01*
X139711Y134984D02*
X139745Y134937D01*
X139745D02*
X139779Y134984D01*
X139779D02*
X139745Y135031D01*
X139711Y134984*
X139745Y134656D02*
Y134000D01*
X140086Y134656D02*
X140290Y134000D01*
X140495Y134656D02*
X140290Y134000D01*
X140802Y134375D02*
X141211D01*
Y134468*
X141211D02*
X141177Y134562D01*
X141177D02*
X141143Y134609D01*
X141074Y134656*
X141074D02*
X140972D01*
X140972D02*
X140904Y134609D01*
X140904D02*
X140836Y134515D01*
X140836D02*
X140802Y134375D01*
Y134281*
X140836Y134140*
X140836D02*
X140904Y134046D01*
X140904D02*
X140972Y134000D01*
X140972D02*
X141074D01*
X141074D02*
X141143Y134046D01*
X141143D02*
X141211Y134140D01*
X141518Y134656D02*
Y134000D01*
Y134375D02*
X141552Y134515D01*
X141552D02*
X141620Y134609D01*
X141688Y134656*
X141688D02*
X141790D01*
X142472Y134515D02*
X142438Y134609D01*
X142438D02*
X142336Y134656D01*
X142234*
X142131Y134609*
X142131D02*
X142097Y134515D01*
X142097D02*
X142131Y134421D01*
X142131D02*
X142199Y134375D01*
X142199D02*
X142370Y134328D01*
X142438Y134281*
X142438D02*
X142472Y134187D01*
X142472D02*
Y134140D01*
X142472D02*
X142438Y134046D01*
X142438D02*
X142336Y134000D01*
X142234*
X142131Y134046*
X142131D02*
X142097Y134140D01*
X142779Y134984D02*
X142813Y134937D01*
X142813D02*
X142847Y134984D01*
X142847D02*
X142813Y135031D01*
X142813D02*
X142779Y134984D01*
X142813Y134656D02*
Y134000D01*
X143256Y134984D02*
Y134187D01*
X143256D02*
X143290Y134046D01*
X143290D02*
X143359Y134000D01*
X143427*
X143154Y134656D02*
X143393D01*
X143768D02*
X143972Y134000D01*
X144177Y134656D02*
X143972Y134000D01*
X143972D02*
X143904Y133812D01*
X143904D02*
X143836Y133718D01*
X143836D02*
X143768Y133671D01*
X143768D02*
X143734D01*
X145438Y134656D02*
X145370Y134609D01*
X145302Y134515*
X145302D02*
X145268Y134375D01*
Y134281*
X145302Y134140*
X145302D02*
X145370Y134046D01*
X145370D02*
X145438Y134000D01*
X145438D02*
X145540D01*
X145540D02*
X145609Y134046D01*
X145609D02*
X145677Y134140D01*
X145677D02*
X145711Y134281D01*
Y134375*
X145677Y134515*
X145677D02*
X145609Y134609D01*
X145540Y134656*
X145540D02*
X145438D01*
X146290Y134984D02*
X146222D01*
X146222D02*
X146154Y134937D01*
X146154D02*
X146120Y134796D01*
X146120D02*
Y134000D01*
X146018Y134656D02*
X146256D01*
X147893Y134750D02*
X147859Y134843D01*
X147859D02*
X147790Y134937D01*
X147790D02*
X147722Y134984D01*
X147722D02*
X147586D01*
X147518Y134937*
X147518D02*
X147449Y134843D01*
X147449D02*
X147415Y134750D01*
X147415D02*
X147381Y134609D01*
X147381D02*
Y134375D01*
X147381D02*
X147415Y134234D01*
X147415D02*
X147449Y134140D01*
X147449D02*
X147518Y134046D01*
X147518D02*
X147586Y134000D01*
X147722*
X147722D02*
X147790Y134046D01*
X147790D02*
X147859Y134140D01*
X147859D02*
X147893Y134234D01*
X148609Y134656D02*
Y134000D01*
Y134515D02*
X148540Y134609D01*
X148540D02*
X148472Y134656D01*
X148472D02*
X148370D01*
X148302Y134609*
X148234Y134515*
X148234D02*
X148199Y134375D01*
X148199D02*
Y134281D01*
X148199D02*
X148234Y134140D01*
X148234D02*
X148302Y134046D01*
X148302D02*
X148370Y134000D01*
X148472*
X148472D02*
X148540Y134046D01*
X148540D02*
X148609Y134140D01*
X148915Y134984D02*
Y134000D01*
X149222Y134984D02*
X149256Y134937D01*
X149256D02*
X149290Y134984D01*
X149290D02*
X149256Y135031D01*
X149256D02*
X149222Y134984D01*
X149256Y134656D02*
Y134000D01*
X149870Y134984D02*
X149802D01*
X149734Y134937*
X149734D02*
X149699Y134796D01*
X149699D02*
Y134000D01*
X149597Y134656D02*
X149836D01*
X150347D02*
X150279Y134609D01*
X150279D02*
X150211Y134515D01*
X150211D02*
X150177Y134375D01*
Y134281*
X150211Y134140*
X150211D02*
X150279Y134046D01*
X150279D02*
X150347Y134000D01*
X150347D02*
X150449D01*
X150449D02*
X150518Y134046D01*
X150518D02*
X150586Y134140D01*
X150586D02*
X150620Y134281D01*
Y134375*
X150586Y134515*
X150586D02*
X150518Y134609D01*
X150449Y134656*
X150449D02*
X150347D01*
X150927D02*
Y134000D01*
Y134375D02*
X150961Y134515D01*
X150961D02*
X151029Y134609D01*
X151029D02*
X151097Y134656D01*
X151097D02*
X151199D01*
X151506D02*
Y134000D01*
Y134468D02*
X151609Y134609D01*
X151677Y134656*
X151779*
X151779D02*
X151847Y134609D01*
X151847D02*
X151881Y134468D01*
X151881D02*
Y134000D01*
X152188Y134984D02*
X152222Y134937D01*
X152222D02*
X152256Y134984D01*
X152256D02*
X152222Y135031D01*
X152222D02*
X152188Y134984D01*
X152222Y134656D02*
Y134000D01*
X152972Y134656D02*
Y134000D01*
Y134515D02*
X152904Y134609D01*
X152904D02*
X152836Y134656D01*
X152734*
X152665Y134609*
X152665D02*
X152597Y134515D01*
X152597D02*
X152563Y134375D01*
X152563D02*
Y134281D01*
X152563D02*
X152597Y134140D01*
X152597D02*
X152665Y134046D01*
X152665D02*
X152734Y134000D01*
X152836*
X152904Y134046*
X152904D02*
X152972Y134140D01*
X154472Y134656D02*
Y134000D01*
Y134515D02*
X154404Y134609D01*
X154404D02*
X154336Y134656D01*
X154234*
X154165Y134609*
X154165D02*
X154097Y134515D01*
X154097D02*
X154063Y134375D01*
X154063D02*
Y134281D01*
X154063D02*
X154097Y134140D01*
X154097D02*
X154165Y134046D01*
X154165D02*
X154234Y134000D01*
X154336*
X154404Y134046*
X154404D02*
X154472Y134140D01*
X154881Y134984D02*
Y134187D01*
X154881D02*
X154915Y134046D01*
X154915D02*
X154984Y134000D01*
X155052*
X154779Y134656D02*
X155018D01*
X156620Y134843D02*
X156552Y134937D01*
X156552D02*
X156449Y134984D01*
X156449D02*
X156313D01*
X156313D02*
X156211Y134937D01*
X156211D02*
X156143Y134843D01*
X156143D02*
Y134750D01*
X156177Y134656*
X156211Y134609*
X156279Y134562*
X156279D02*
X156484Y134468D01*
X156484D02*
X156552Y134421D01*
X156552D02*
X156586Y134375D01*
X156620Y134281*
Y134140*
X156620D02*
X156552Y134046D01*
X156552D02*
X156449Y134000D01*
X156449D02*
X156313D01*
X156313D02*
X156211Y134046D01*
X156211D02*
X156143Y134140D01*
X157336Y134656D02*
Y134000D01*
Y134515D02*
X157268Y134609D01*
X157199Y134656*
X157199D02*
X157097D01*
X157097D02*
X157029Y134609D01*
X157029D02*
X156961Y134515D01*
X156961D02*
X156927Y134375D01*
Y134281*
X156961Y134140*
X156961D02*
X157029Y134046D01*
X157029D02*
X157097Y134000D01*
X157097D02*
X157199D01*
X157199D02*
X157268Y134046D01*
X157268D02*
X157336Y134140D01*
X157643Y134656D02*
Y134000D01*
Y134468D02*
X157745Y134609D01*
X157813Y134656*
X157813D02*
X157915D01*
X157915D02*
X157984Y134609D01*
X158018Y134468*
X158018D02*
Y134000D01*
X159109Y134984D02*
Y134000D01*
Y134984D02*
X159347D01*
X159347D02*
X159449Y134937D01*
X159449D02*
X159518Y134843D01*
X159518D02*
X159552Y134750D01*
X159586Y134609*
Y134375*
X159552Y134234*
X159518Y134140*
X159518D02*
X159449Y134046D01*
X159449D02*
X159347Y134000D01*
X159347D02*
X159109D01*
X159893Y134984D02*
X159927Y134937D01*
X159927D02*
X159961Y134984D01*
X159927Y135031*
X159893Y134984*
X159927Y134656D02*
Y134000D01*
X160268Y134375D02*
X160677D01*
Y134468*
X160677D02*
X160643Y134562D01*
X160643D02*
X160609Y134609D01*
X160540Y134656*
X160540D02*
X160438D01*
X160438D02*
X160370Y134609D01*
X160302Y134515*
X160302D02*
X160268Y134375D01*
Y134281*
X160302Y134140*
X160302D02*
X160370Y134046D01*
X160370D02*
X160438Y134000D01*
X160438D02*
X160540D01*
X160540D02*
X160609Y134046D01*
X160609D02*
X160677Y134140D01*
X161393Y134656D02*
Y133906D01*
X161359Y133765*
X161359D02*
X161324Y133718D01*
X161324D02*
X161256Y133671D01*
X161256D02*
X161154D01*
X161154D02*
X161086Y133718D01*
X161393Y134515D02*
X161324Y134609D01*
X161324D02*
X161256Y134656D01*
X161256D02*
X161154D01*
X161154D02*
X161086Y134609D01*
X161018Y134515*
X161018D02*
X160984Y134375D01*
Y134281*
X161018Y134140*
X161018D02*
X161086Y134046D01*
X161086D02*
X161154Y134000D01*
X161154D02*
X161256D01*
X161256D02*
X161324Y134046D01*
X161324D02*
X161393Y134140D01*
X161870Y134656D02*
X161802Y134609D01*
X161734Y134515*
X161734D02*
X161699Y134375D01*
X161699D02*
Y134281D01*
X161699D02*
X161734Y134140D01*
X161734D02*
X161802Y134046D01*
X161802D02*
X161870Y134000D01*
X161972*
X161972D02*
X162040Y134046D01*
X162040D02*
X162109Y134140D01*
X162109D02*
X162143Y134281D01*
Y134375*
X162109Y134515*
X162109D02*
X162040Y134609D01*
X162040D02*
X161972Y134656D01*
X161972D02*
X161870D01*
X162762Y129664D02*
X162819Y129703D01*
X162904Y129820*
X162904D02*
Y129000D01*
X163188Y129078D02*
X163160Y129039D01*
X163188Y129000*
X163188D02*
X163217Y129039D01*
X163188Y129078*
X163643Y129820D02*
X163557Y129781D01*
X163557D02*
X163501Y129664D01*
X163472Y129468*
X163472D02*
Y129351D01*
X163472D02*
X163501Y129156D01*
X163557Y129039*
X163557D02*
X163643Y129000D01*
X163699*
X163699D02*
X163785Y129039D01*
X163842Y129156*
X163870Y129351*
X163870D02*
Y129468D01*
X163870D02*
X163842Y129664D01*
X163785Y129781*
X163699Y129820*
X163699D02*
X163643D01*
X152160D02*
Y129234D01*
X152188Y129117*
X152188D02*
X152245Y129039D01*
X152330Y129000*
X152330D02*
X152387D01*
X152472Y129039*
X152472D02*
X152529Y129117D01*
X152529D02*
X152557Y129234D01*
X152557D02*
Y129820D01*
X153239Y129625D02*
X153211Y129703D01*
X153154Y129781*
X153154D02*
X153097Y129820D01*
X153097D02*
X152984D01*
X152927Y129781*
X152870Y129703*
X152842Y129625*
X152813Y129507*
X152813D02*
Y129312D01*
X152813D02*
X152842Y129195D01*
X152870Y129117*
X152927Y129039*
X152984Y129000*
X153097*
X153097D02*
X153154Y129039D01*
X153154D02*
X153211Y129117D01*
X153239Y129195*
X153893Y129703D02*
X153836Y129781D01*
X153751Y129820*
X153637*
X153552Y129781*
X153495Y129703*
Y129625*
X153523Y129546*
X153523D02*
X153552Y129507D01*
X153552D02*
X153609Y129468D01*
X153609D02*
X153779Y129390D01*
X153779D02*
X153836Y129351D01*
X153836D02*
X153864Y129312D01*
X153864D02*
X153893Y129234D01*
Y129117*
X153836Y129039*
X153751Y129000*
X153637*
X153552Y129039*
X153495Y129117*
X154148Y129820D02*
Y129000D01*
Y129820D02*
X154347D01*
X154347D02*
X154432Y129781D01*
X154432D02*
X154489Y129703D01*
X154489D02*
X154518Y129625D01*
X154546Y129507*
X154546D02*
Y129312D01*
X154546D02*
X154518Y129195D01*
X154489Y129117*
X154489D02*
X154432Y129039D01*
X154432D02*
X154347Y129000D01*
X154347D02*
X154148D01*
X154972Y129820D02*
X154887Y129781D01*
X154830Y129664*
X154830D02*
X154802Y129468D01*
X154802D02*
Y129351D01*
X154802D02*
X154830Y129156D01*
X154830D02*
X154887Y129039D01*
X154972Y129000*
X154972D02*
X155029D01*
X155029D02*
X155114Y129039D01*
X155114D02*
X155171Y129156D01*
X155171D02*
X155199Y129351D01*
X155199D02*
Y129468D01*
X155199D02*
X155171Y129664D01*
X155171D02*
X155114Y129781D01*
X155114D02*
X155029Y129820D01*
X155029D02*
X154972D01*
X155626D02*
X155540Y129781D01*
X155540D02*
X155484Y129664D01*
X155455Y129468*
X155455D02*
Y129351D01*
X155455D02*
X155484Y129156D01*
X155540Y129039*
X155540D02*
X155626Y129000D01*
X155682*
X155682D02*
X155768Y129039D01*
X155824Y129156*
X155824D02*
X155853Y129351D01*
X155853D02*
Y129468D01*
X155853D02*
X155824Y129664D01*
X155824D02*
X155768Y129781D01*
X155682Y129820*
X155682D02*
X155626D01*
X156109Y129664D02*
X156165Y129703D01*
X156165D02*
X156251Y129820D01*
Y129000*
X139290Y129625D02*
Y129664D01*
X139290D02*
X139319Y129742D01*
X139347Y129781*
X139347D02*
X139404Y129820D01*
X139404D02*
X139518D01*
X139574Y129781*
X139574D02*
X139603Y129742D01*
X139631Y129664*
X139631D02*
Y129585D01*
X139631D02*
X139603Y129507D01*
X139603D02*
X139546Y129390D01*
X139546D02*
X139262Y129000D01*
X139660*
X140086Y129820D02*
X140001Y129781D01*
X139944Y129664*
X139915Y129468*
X139915D02*
Y129351D01*
X139915D02*
X139944Y129156D01*
X140001Y129039*
X140086Y129000*
X140143*
X140228Y129039*
X140285Y129156*
X140313Y129351*
X140313D02*
Y129468D01*
X140313D02*
X140285Y129664D01*
X140228Y129781*
X140143Y129820*
X140086*
X140569Y129664D02*
X140626Y129703D01*
X140711Y129820*
Y129000*
X141251Y129820D02*
X140967Y129273D01*
X141393*
X141251Y129820D02*
Y129000D01*
X141648Y129351D02*
X142160D01*
X142586Y129820D02*
X142501Y129781D01*
X142444Y129664*
X142415Y129468*
X142415D02*
Y129351D01*
X142415D02*
X142444Y129156D01*
X142501Y129039*
X142586Y129000*
X142643*
X142728Y129039*
X142785Y129156*
X142813Y129351*
X142813D02*
Y129468D01*
X142813D02*
X142785Y129664D01*
X142728Y129781*
X142643Y129820*
X142586*
X143126D02*
X143438D01*
X143438D02*
X143268Y129507D01*
X143268D02*
X143353D01*
X143353D02*
X143410Y129468D01*
X143410D02*
X143438Y129429D01*
X143438D02*
X143467Y129312D01*
X143467D02*
Y129234D01*
X143438Y129117*
X143438D02*
X143381Y129039D01*
X143381D02*
X143296Y129000D01*
X143296D02*
X143211D01*
X143126Y129039*
X143097Y129078*
X143097D02*
X143069Y129156D01*
X143722Y129351D02*
X144234D01*
X144489Y129664D02*
X144546Y129703D01*
X144546D02*
X144631Y129820D01*
X144631D02*
Y129000D01*
X145256Y129820D02*
X144972D01*
X144972D02*
X144944Y129468D01*
X144944D02*
X144972Y129507D01*
X144972D02*
X145057Y129546D01*
X145057D02*
X145143D01*
X145143D02*
X145228Y129507D01*
X145228D02*
X145285Y129429D01*
X145285D02*
X145313Y129312D01*
X145313D02*
X145285Y129234D01*
X145256Y129117*
X145256D02*
X145199Y129039D01*
X145199D02*
X145114Y129000D01*
X145114D02*
X145029D01*
X145029D02*
X144944Y129039D01*
X144915Y129078*
X144915D02*
X144887Y129156D01*
X135762Y126546D02*
X136074Y126000D01*
Y126546D02*
X135762Y126000D01*
X136330Y126546D02*
X136643Y126000D01*
Y126546D02*
X136330Y126000D01*
X136898Y126546D02*
X137211Y126000D01*
Y126546D02*
X136898Y126000D01*
X153103Y126500D02*
X153080Y126562D01*
X153080D02*
X153035Y126625D01*
X152989Y126656*
X152989D02*
X152898D01*
X152898D02*
X152853Y126625D01*
X152807Y126562*
X152807D02*
X152785Y126500D01*
X152762Y126406*
Y126250*
X152785Y126156*
X152807Y126093*
X152807D02*
X152853Y126031D01*
X152898Y126000*
X152898D02*
X152989D01*
X152989D02*
X153035Y126031D01*
X153080Y126093*
X153080D02*
X153103Y126156D01*
X153444Y126656D02*
X153398Y126625D01*
X153398D02*
X153353Y126562D01*
X153353D02*
X153330Y126500D01*
X153330D02*
X153307Y126406D01*
X153307D02*
Y126250D01*
X153307D02*
X153330Y126156D01*
X153330D02*
X153353Y126093D01*
X153353D02*
X153398Y126031D01*
X153398D02*
X153444Y126000D01*
X153535*
X153580Y126031*
X153580D02*
X153626Y126093D01*
X153626D02*
X153648Y126156D01*
X153648D02*
X153671Y126250D01*
X153671D02*
Y126406D01*
X153671D02*
X153648Y126500D01*
X153648D02*
X153626Y126562D01*
X153626D02*
X153580Y126625D01*
X153580D02*
X153535Y126656D01*
X153444*
X153876D02*
Y126000D01*
Y126656D02*
X154080D01*
X154080D02*
X154148Y126625D01*
X154148D02*
X154171Y126593D01*
X154171D02*
X154194Y126531D01*
Y126437*
X154194D02*
X154171Y126375D01*
X154171D02*
X154148Y126343D01*
X154148D02*
X154080Y126312D01*
X154080D02*
X153876D01*
X154398Y126656D02*
Y126000D01*
Y126656D02*
X154603D01*
X154671Y126625*
X154671D02*
X154694Y126593D01*
X154694D02*
X154717Y126531D01*
Y126437*
X154717D02*
X154694Y126375D01*
X154671Y126343*
X154671D02*
X154603Y126312D01*
X154603D02*
X154398D01*
X154921Y126656D02*
Y126000D01*
Y126656D02*
X155217D01*
X154921Y126343D02*
X155103D01*
X154921Y126000D02*
X155217D01*
X155421Y126656D02*
Y126000D01*
Y126656D02*
X155626D01*
X155694Y126625*
X155717Y126593*
X155717D02*
X155739Y126531D01*
X155739D02*
Y126468D01*
X155739D02*
X155717Y126406D01*
X155694Y126375*
X155626Y126343*
X155626D02*
X155421D01*
X155580D02*
X155739Y126000D01*
X155989Y126031D02*
X155967Y126000D01*
X155944Y126031*
X155967Y126062*
X155967D02*
X155989Y126031D01*
X155989D02*
Y125968D01*
X155989D02*
X155967Y125906D01*
X155944Y125875*
X156717Y126656D02*
Y126000D01*
X156989*
X157376Y126656D02*
X157194Y126000D01*
X157376Y126656D02*
X157557Y126000D01*
X157262Y126218D02*
X157489D01*
X157762Y126656D02*
X157944Y126343D01*
X157944D02*
Y126000D01*
X158126Y126656D02*
X157944Y126343D01*
X158330Y126656D02*
Y126000D01*
Y126656D02*
X158626D01*
X158330Y126343D02*
X158512D01*
X158330Y126000D02*
X158626D01*
X158830Y126656D02*
Y126000D01*
Y126656D02*
X159035D01*
X159103Y126625*
X159126Y126593*
X159126D02*
X159148Y126531D01*
X159148D02*
Y126468D01*
X159148D02*
X159126Y126406D01*
X159103Y126375*
X159035Y126343*
X159035D02*
X158830D01*
X158989D02*
X159148Y126000D01*
X160103Y126656D02*
X159876Y126218D01*
X159876D02*
X160217D01*
X160103Y126656D02*
Y126000D01*
X139262Y126656D02*
Y126187D01*
X139262D02*
X139285Y126093D01*
X139285D02*
X139330Y126031D01*
X139330D02*
X139398Y126000D01*
X139398D02*
X139444D01*
X139512Y126031*
X139557Y126093*
X139557D02*
X139580Y126187D01*
X139580D02*
Y126656D01*
X140126Y126500D02*
X140103Y126562D01*
X140103D02*
X140057Y126625D01*
X140057D02*
X140012Y126656D01*
X139921*
X139921D02*
X139876Y126625D01*
X139830Y126562*
X139830D02*
X139807Y126500D01*
X139807D02*
X139785Y126406D01*
Y126250*
X139807Y126156*
X139807D02*
X139830Y126093D01*
X139830D02*
X139876Y126031D01*
X139921Y126000*
X139921D02*
X140012D01*
X140057Y126031*
X140057D02*
X140103Y126093D01*
X140103D02*
X140126Y126156D01*
X140648Y126562D02*
X140603Y126625D01*
X140535Y126656*
X140444*
X140376Y126625*
X140330Y126562*
X140330D02*
Y126500D01*
X140330D02*
X140353Y126437D01*
X140353D02*
X140376Y126406D01*
X140421Y126375*
X140421D02*
X140557Y126312D01*
X140557D02*
X140603Y126281D01*
X140626Y126250*
X140648Y126187*
X140648D02*
Y126093D01*
X140648D02*
X140603Y126031D01*
X140535Y126000*
X140444*
X140376Y126031*
X140330Y126093*
X140853Y126656D02*
Y126000D01*
Y126656D02*
X141012D01*
X141080Y126625*
X141080D02*
X141126Y126562D01*
X141126D02*
X141148Y126500D01*
X141148D02*
X141171Y126406D01*
X141171D02*
Y126250D01*
X141171D02*
X141148Y126156D01*
X141148D02*
X141126Y126093D01*
X141126D02*
X141080Y126031D01*
X141080D02*
X141012Y126000D01*
X140853*
X141512Y126656D02*
X141444Y126625D01*
X141398Y126531*
X141398D02*
X141376Y126375D01*
Y126281*
X141398Y126125*
X141398D02*
X141444Y126031D01*
X141512Y126000*
X141557*
X141557D02*
X141626Y126031D01*
X141671Y126125*
X141671D02*
X141694Y126281D01*
Y126375*
X141671Y126531*
X141671D02*
X141626Y126625D01*
X141557Y126656*
X141557D02*
X141512D01*
X141898Y126531D02*
X141944Y126562D01*
X141944D02*
X142012Y126656D01*
Y126000*
X142217Y125875D02*
X142694D01*
X143171Y126500D02*
X143148Y126562D01*
X143148D02*
X143103Y126625D01*
X143057Y126656*
X143057D02*
X142967D01*
X142921Y126625*
X142921D02*
X142876Y126562D01*
X142876D02*
X142853Y126500D01*
X142830Y126406*
X142830D02*
Y126250D01*
X142830D02*
X142853Y126156D01*
X142876Y126093*
X142876D02*
X142921Y126031D01*
X142921D02*
X142967Y126000D01*
X143057*
X143057D02*
X143103Y126031D01*
X143148Y126093*
X143148D02*
X143171Y126156D01*
X143376Y126656D02*
Y126187D01*
X143376D02*
X143398Y126093D01*
X143398D02*
X143444Y126031D01*
X143512Y126000*
X143557*
X143557D02*
X143626Y126031D01*
X143671Y126093*
X143671D02*
X143694Y126187D01*
X143694D02*
Y126656D01*
X144126D02*
X143898Y126218D01*
X143898D02*
X144239D01*
X144126Y126656D02*
Y126000D01*
X144444Y125875D02*
X144921D01*
X145057Y126531D02*
X145103Y126562D01*
X145103D02*
X145171Y126656D01*
X145171D02*
Y126000D01*
X145376Y126437D02*
Y125781D01*
Y126343D02*
X145421Y126406D01*
X145421D02*
X145467Y126437D01*
X145467D02*
X145535D01*
X145535D02*
X145580Y126406D01*
X145580D02*
X145626Y126343D01*
X145626D02*
X145648Y126250D01*
X145648D02*
Y126187D01*
X145648D02*
X145626Y126093D01*
X145626D02*
X145580Y126031D01*
X145580D02*
X145535Y126000D01*
X145467*
X145421Y126031*
X145421D02*
X145376Y126093D01*
X145989Y126656D02*
X145921Y126625D01*
X145921D02*
X145876Y126531D01*
X145853Y126375*
Y126281*
X145876Y126125*
X145921Y126031*
X145921D02*
X145989Y126000D01*
X145989D02*
X146035D01*
X146103Y126031*
X146148Y126125*
X146148D02*
X146171Y126281D01*
X146171D02*
Y126375D01*
X146171D02*
X146148Y126531D01*
X146148D02*
X146103Y126625D01*
X146035Y126656*
X145989*
X146398Y126062D02*
X146376Y126031D01*
X146398Y126000*
X146398D02*
X146421Y126031D01*
X146421D02*
X146398Y126062D01*
X146967Y126500D02*
X146944Y126562D01*
X146944D02*
X146898Y126625D01*
X146898D02*
X146853Y126656D01*
X146762*
X146717Y126625*
X146671Y126562*
X146671D02*
X146648Y126500D01*
X146648D02*
X146626Y126406D01*
Y126250*
X146648Y126156*
X146648D02*
X146671Y126093D01*
X146671D02*
X146717Y126031D01*
X146762Y126000*
X146853*
X146898Y126031*
X146898D02*
X146944Y126093D01*
X146944D02*
X146967Y126156D01*
Y126250*
X146853D02*
X146967D01*
X147171Y126656D02*
Y126000D01*
Y126656D02*
X147376D01*
X147444Y126625*
X147467Y126593*
X147467D02*
X147489Y126531D01*
X147489D02*
Y126468D01*
X147489D02*
X147467Y126406D01*
X147444Y126375*
X147376Y126343*
X147171D02*
X147376D01*
X147376D02*
X147444Y126312D01*
X147444D02*
X147467Y126281D01*
X147489Y126218*
X147489D02*
Y126125D01*
X147489D02*
X147467Y126062D01*
X147467D02*
X147444Y126031D01*
X147376Y126000*
X147171*
X147694Y126656D02*
Y126000D01*
Y126656D02*
X147898D01*
X147898D02*
X147967Y126625D01*
X147989Y126593*
X147989D02*
X148012Y126531D01*
Y126468*
X148012D02*
X147989Y126406D01*
X147989D02*
X147967Y126375D01*
X147898Y126343*
X147898D02*
X147694D01*
X147853D02*
X148012Y126000D01*
G54D19*
X139000Y139000D02*
X139500Y139500D01*
X144000Y139000D02*
X144500Y139500D01*
X157000Y139000D02*
X156500Y139500D01*
X143000Y139000D02*
X143500Y139500D01*
X156000Y139000D02*
X155500Y139500D01*
X154000Y139000D02*
X154500Y139500D01*
X145000Y139000D02*
X145500Y139500D01*
X153000Y139000D02*
X153500Y139500D01*
X152000Y139000D02*
X152500Y139500D01*
X146000Y139000D02*
X146500Y139500D01*
X147300Y139000D02*
X147500Y139500D01*
X158000Y139000D02*
X157500Y139500D01*
X142000Y139000D02*
X142500Y139500D01*
X159500D02*
X159200Y139900D01*
X158500Y139500D02*
X158800Y139900D01*
X149500Y139500D02*
X149000Y140000D01*
X141500Y139500D02*
X141200Y139900D01*
X140500Y139500D02*
X140800Y139900D01*
X161000Y139000D02*
X160500Y139500D01*
X139000Y147000D02*
X139500Y147500D01*
X139000Y146000D02*
X139500Y146500D01*
X139000Y144000D02*
X139500Y144500D01*
X139000Y156200D02*
X139500Y156500D01*
X139000Y143000D02*
X139500Y143500D01*
X139000Y157000D02*
X139500Y157500D01*
X139000Y145000D02*
X139500Y145500D01*
X139000Y142000D02*
X139500Y142500D01*
X139000Y148000D02*
X139500Y148500D01*
X139000Y150300D02*
X139500Y150500D01*
Y140500D02*
X140000Y141000D01*
X139500Y141500D02*
X139950Y141850D01*
X139500Y145500D02*
X139900Y145900D01*
X139500Y148500D02*
X139900Y148900D01*
X139500Y149500D02*
X139000Y149700D01*
X139500Y151500D02*
X139000Y152000D01*
X139500Y152500D02*
X139000Y153000D01*
X139500Y153500D02*
X139000Y154000D01*
X139500Y154500D02*
X139000Y155000D01*
X139500Y155500D02*
X139000Y155700D01*
X139500Y158500D02*
X139900Y158800D01*
X147950Y153950D02*
X148000Y154000D01*
X142000Y146000D02*
X142500Y146500D01*
X146500Y158000D02*
X146000D01*
X151500Y159500D02*
X152000D01*
X152500*
X141500Y158000D02*
X142000D01*
X141000Y158500D02*
Y159000D01*
X141500*
X148500Y140000D02*
X148000D01*
X148500Y141000D02*
X149000D01*
X148500Y142000D02*
X148000D01*
X144850Y142500D02*
Y142950D01*
X151500Y142000D02*
X152000D01*
X151500Y140000D02*
X151000D01*
X151500Y141000D02*
X151000D01*
X155000Y142500D02*
X154900Y143100D01*
X158500Y156000D02*
X159000D01*
X158500Y156550D02*
Y157500D01*
X157950Y154050D02*
X158500Y154500D01*
X146000Y157500D02*
Y158000D01*
X142800Y158100D02*
X142500Y158500D01*
Y155500D02*
Y155100D01*
X143000Y155300*
X148000Y157500D02*
Y158000D01*
X142500Y155500D02*
X143000Y155300D01*
X142500Y156500*
X142000Y154000D02*
X141500Y154500D01*
X140000Y145000D02*
X140500Y145500D01*
X157500Y146500D02*
X158000Y146050D01*
X158500Y146500*
X154000Y150000D02*
X153500Y150500D01*
X145900Y150100D02*
X146500Y150500D01*
X155350Y156750D02*
X155500Y156900D01*
Y157500*
X139900Y145900D02*
X140500Y146500D01*
X159500Y149500D02*
X159000D01*
X159500*
X158100Y152100D02*
X158500Y152500D01*
X159100Y153100D02*
X159500Y153500D01*
X156950Y150500D02*
X157500D01*
X160100Y159100D02*
X160500Y159500D01*
X160100Y158100D02*
X160500Y158500D01*
X142000Y149000D02*
X142500Y149500D01*
X140000Y143000D02*
X140500Y143500D01*
X142000Y147000D02*
X142500Y147500D01*
X140000Y147100D02*
X140500Y147500D01*
X141100Y147000D02*
X141500Y147500D01*
X141000Y148000D02*
X141500Y148500D01*
X140000Y144000D02*
X140500Y144500D01*
X141000Y142000D02*
X141500Y142500D01*
X141000Y143000D02*
X141500Y143500D01*
X141000Y149000D02*
X141500Y149500D01*
X141000Y146000D02*
X141500Y146500D01*
X141000Y145000D02*
X141500Y145500D01*
X144700Y157000D02*
X144500Y157500D01*
X145000Y140000D02*
X145500Y140500D01*
X145000Y141000D02*
X145500Y141500D01*
X146150Y141050D02*
X146500Y141500D01*
X146000Y140000D02*
X146500Y140500D01*
X142000Y140000D02*
X142500Y140500D01*
X143000Y141000D02*
X143500Y141500D01*
X144000Y140000D02*
X144500Y140500D01*
X142000Y141000D02*
X142500Y141500D01*
X143000Y140000D02*
X143500Y140500D01*
X159000Y148000D02*
X158500Y148500D01*
X160000Y146900D02*
X159500Y147500D01*
X158950Y147150D02*
X158500Y147500D01*
X158000Y146950D02*
X157500Y147500D01*
X160000Y146000D02*
X159500Y146500D01*
X159000Y142000D02*
X158500Y142500D01*
X160000Y145000D02*
X159500Y145500D01*
X156900Y149500D02*
X157500D01*
X160100Y141200D02*
X160500Y141500D01*
X159000Y144900D02*
X158500Y145500D01*
X159000Y143000D02*
X158500Y143500D01*
X154000Y141000D02*
X153500Y141500D01*
X157900Y141100D02*
X157500Y141500D01*
X154000Y140000D02*
X153500Y140500D01*
X158000Y140000D02*
X157500Y140500D01*
X157000Y140000D02*
X156500Y140500D01*
X156000Y140000D02*
X155500Y140500D01*
X156800Y141050D02*
X156500Y141500D01*
X155000Y140000D02*
X154500Y140500D01*
X141200Y160100D02*
X141500Y160500D01*
X140800Y160100D02*
X140500Y160500D01*
X139900Y159200D02*
X139500Y159500D01*
X152600Y156950D02*
X152500Y157500D01*
X154000Y151000D02*
X153500Y151500D01*
X154000Y149000D02*
X153500Y149500D01*
X154000Y148000D02*
X153500Y148500D01*
X146000Y148000D02*
X146500Y148500D01*
X152500Y146500D02*
X152052Y146058D01*
X151500Y146500*
X147500D02*
X147948Y146058D01*
X148500Y146500*
X154000Y152000D02*
X153500Y152500D01*
X146000Y152000D02*
X146500Y152500D01*
X159250Y160050D02*
X159500Y160500D01*
X158750Y160050D02*
X158500Y160500D01*
X150500Y157000D02*
Y157500D01*
X150100Y159100D02*
X150500Y159500D01*
X142000Y152000D02*
X142500Y152500D01*
X140000Y148100D02*
X140500Y148500D01*
X141000Y144000D02*
X141500Y144500D01*
X160000Y148000D02*
X159500Y148500D01*
X158500Y144500D02*
X159000Y144000D01*
X159500Y144500*
X158000Y148000D02*
X157500Y148500D01*
X142000Y148000D02*
X142500Y148500D01*
X156000Y141000D02*
X155500Y141500D01*
X152000Y141000D02*
X152500Y141500D01*
X152000Y140000D02*
X152500Y140500D01*
X147000Y140000D02*
X147500Y140500D01*
X143900Y141000D02*
X144500Y141500D01*
X148000Y141000D02*
X147500Y141500D01*
X159000Y141000D02*
X158500Y141500D01*
X140500D02*
X141000Y141000D01*
X141500Y141500*
X159950Y150950D02*
X160500Y151500D01*
X160000Y149000D02*
X159500Y149500D01*
X140000Y151000D02*
X139500Y151500D01*
X149000Y140000D02*
X149500Y140500D01*
X150100Y140100D02*
X150500Y140500D01*
X139900Y148900D02*
X140500Y149500D01*
X150000Y160000D02*
X150500Y160500D01*
X147900Y160100D02*
X147500Y160500D01*
X153000Y160000D02*
X153500Y160500D01*
X151000Y160000D02*
X150500Y160500D01*
X140000Y140000D02*
X140500Y140500D01*
X160000Y140000D02*
X159500Y140500D01*
X150500Y143200D02*
Y145650D01*
X150200Y145950*
X149450Y143200D02*
Y144350D01*
X149100Y144700*
Y146000*
X150500Y147500D02*
X150000D01*
X149500*
X150000D02*
Y148000D01*
X146000Y149000D02*
X146500Y149500D01*
X146000Y151000D02*
X146500Y151500D01*
X150500Y148500D02*
X150000Y148000D01*
X149500Y148500*
X150500Y152500D02*
X150000Y152000D01*
X149500Y152500*
X150500Y151500D02*
X150000Y151000D01*
X149500Y151500*
X147000Y150000D02*
X147500Y150500D01*
X148500D02*
X148000Y150000D01*
X147500Y150500*
X149500D02*
X149000Y150000D01*
X148500Y150500*
X150500Y149500D02*
X150000Y149000D01*
X149500Y149500*
X150500Y150500D02*
X150000Y150000D01*
X149500Y150500*
X151500D02*
X151000Y150000D01*
X150500Y150500*
X153000Y150000D02*
X152500Y150500D01*
X152000Y150000*
X151500Y150500*
X148500Y148500D02*
X149000Y148000D01*
X149500Y148500*
X148500Y147500D02*
X149000Y147000D01*
X149500Y147500*
X148000Y147000D02*
X147500Y147500D01*
X147000Y147000*
X148500Y148500D02*
X148000Y148000D01*
X147500Y148500*
X147000Y148000D02*
X147500Y148500D01*
X147000Y149000D02*
X147500Y149500D01*
X148500D02*
X148000Y149000D01*
X147500Y149500*
X149000Y149000D02*
X149500Y149500D01*
X147500Y151500D02*
X148000Y151000D01*
X148500Y151500*
X147000Y151000D02*
X147500Y151500D01*
X147000Y152000D02*
X147500Y152500D01*
X147000Y153000D02*
X146500Y153500D01*
X148000Y152000D02*
X147500Y152500D01*
X149500D02*
X149000Y152000D01*
X148500Y152500*
Y151500D02*
X149000Y151000D01*
X149500Y151500*
X151500Y152500D02*
X151000Y152000D01*
X150500Y152500*
X153000Y153000D02*
X153500Y153500D01*
X152500Y152500D02*
X152000Y152000D01*
X151500Y152500*
X153000Y152000D02*
X152500Y152500D01*
X153000Y151000D02*
X152500Y151500D01*
X151500D02*
X151000Y151000D01*
X150500Y151500*
X151500Y149500D02*
X152000Y149000D01*
X152500Y149500*
X153000Y149000D02*
X152500Y149500D01*
X151500Y148500D02*
X152000Y148000D01*
X152500Y148500*
X153000Y147000D02*
X152500Y147500D01*
X151500D02*
X152000Y147000D01*
X152500Y147500*
X150500D02*
X151000Y147000D01*
X151500Y147500*
X150500Y148500D02*
X151000Y148000D01*
X151500Y148500*
X152500Y151500D02*
X152000Y151000D01*
X151500Y151500*
X150500Y149500D02*
X151000Y149000D01*
X151500Y149500*
X158500Y140500D02*
X159000Y141000D01*
X141500Y140500D02*
X141000Y141000D01*
X159500Y141500D02*
X160000Y142000D01*
X154500Y141500D02*
X155500D01*
X141500D02*
X142000Y142000D01*
X140500Y141500D02*
Y142500D01*
X159500D02*
X160000Y143000D01*
X153500Y142500D02*
X153400Y143000D01*
X152500Y142500D02*
X152000Y143000D01*
X150500Y142500D02*
X151000Y143000D01*
Y146050*
X149500Y142500D02*
X149900Y142900D01*
Y144650*
X149550Y145000*
Y145600*
X149800Y145850*
X147500Y142500D02*
X148050Y143000D01*
X146500Y142550D02*
Y142500D01*
X146450Y143050*
X140500Y142500D02*
X139500D01*
X160500Y143500D02*
X159500D01*
X159000Y144000*
X142500Y143500D02*
Y144500D01*
X142900Y144900*
X141500Y144500D02*
X142500Y145500D01*
X142000Y146000*
X153500Y146500D02*
X153000Y147000D01*
X151500Y146500D02*
X150500D01*
X150000Y147000*
X149500Y146500*
X148500*
X146500D02*
X147000Y147000D01*
X153500Y147500D02*
X154000Y148000D01*
X152000D02*
X152500Y147500D01*
X153000Y148000*
X151500Y147500D02*
X151000Y148000D01*
X150000D02*
X150500Y147500D01*
X151000Y148000*
X150000D02*
X149500Y147500D01*
X149000Y148000*
X148000D02*
X148500Y147500D01*
X149000Y148000*
X147000D02*
X147500Y147500D01*
X148000Y148000*
X146500Y147500D02*
X146000Y148000D01*
X153500Y148500D02*
X154000Y149000D01*
X152000D02*
X152500Y148500D01*
X153000Y149000*
X151000D02*
X151500Y148500D01*
X152000Y149000*
X150000D02*
X150500Y148500D01*
X151000Y149000*
X150000D02*
X149500Y148500D01*
X149000Y149000*
X148000D02*
X148500Y148500D01*
X149000Y149000*
X148000D02*
X147500Y148500D01*
X147000Y149000*
X146500Y148500D02*
X146000Y149000D01*
X159500Y149500D02*
Y150500D01*
X158500Y149500D02*
X159000D01*
X153500D02*
X154000Y150000D01*
X152000D02*
X152500Y149500D01*
X153000Y150000*
X151000D02*
X151500Y149500D01*
X152000Y150000*
X150000D02*
X150500Y149500D01*
X151000Y150000*
X149000D02*
X149500Y149500D01*
X150000Y150000*
X148000D02*
X148500Y149500D01*
X149000Y150000*
X147000D02*
X147500Y149500D01*
X148000Y150000*
X146500Y149500D02*
X145900Y150100D01*
X140500Y149500D02*
Y150500D01*
X159500D02*
X159950Y150950D01*
X158500Y150500D02*
X159000Y151000D01*
X153500Y150500D02*
X154000Y151000D01*
X153000D02*
X152500Y150500D01*
X152000Y151000*
X151500Y150500D02*
X152000Y151000D01*
X150000D02*
X150500Y150500D01*
X151000Y151000*
X150000D02*
X149500Y150500D01*
X149000Y151000*
X148500Y150500*
X148000Y151000*
X147500Y150500*
X147000Y151000*
X146500Y150500D02*
X146000Y151000D01*
X142500Y150500D02*
Y151500D01*
X141500Y150500D02*
X141000Y151000D01*
X140500Y150500D02*
X140000Y151000D01*
X159500Y151500D02*
X160000Y152000D01*
X158500Y151500D02*
X158950Y151850D01*
X157500Y151500D02*
X157000Y151850D01*
X153500Y151500D02*
X154000Y152000D01*
X152500Y151500D02*
X153000Y152000D01*
X151000D02*
X151500Y151500D01*
X152000Y152000*
X150000D02*
X150500Y151500D01*
X151000Y152000*
X150000D02*
X149500Y151500D01*
X149000Y152000*
X148000D02*
X148500Y151500D01*
X149000Y152000*
X148000D02*
X147500Y151500D01*
X147000Y152000*
X146500Y151500D02*
X146000Y152000D01*
X142500Y151500D02*
X142000Y152000D01*
X141500Y151500D02*
X141000Y151900D01*
X140500Y151500D02*
X139900Y152000D01*
X159500Y152500D02*
X160000Y153000D01*
X157500Y152500D02*
X156900Y152800D01*
X152000Y153000D02*
X152500Y152500D01*
X153000Y153000*
X152000D02*
X151500Y152500D01*
X151000Y153000*
X150000D02*
X150500Y152500D01*
X151000Y153000*
X150000D02*
X149500Y152500D01*
X149000Y153000*
X148000D02*
X148500Y152500D01*
X149000Y153000*
X148000D02*
X147500Y152500D01*
X147000Y153000*
X141500Y152500D02*
X141100Y152900D01*
X140500Y152500D02*
X140000Y153000D01*
X158500Y153500D02*
X159000Y154000D01*
X157500Y153500D02*
X157950Y154050D01*
X152500Y153500D02*
X152000Y154000D01*
X151500Y153500*
X151000Y154000*
X150500Y153500*
X150000Y154000*
X149000D02*
X149500Y153500D01*
X150000Y154000*
X149000D02*
X148500Y153500D01*
X147950Y153950*
X147500Y153500D02*
X147950Y153950D01*
X142500Y153500D02*
X142000Y154000D01*
X141500Y153500D02*
X141000Y154000D01*
X140500Y153500D02*
X140000Y154000D01*
X159500Y154500D02*
X160000Y155000D01*
X158500Y154500D02*
Y155500D01*
X143000Y155300D02*
X142500Y154500D01*
Y155100*
X141500Y154500D02*
Y155500D01*
X140500Y154500D02*
X140000Y155000D01*
X159500Y155500D02*
X160000Y156000D01*
X142500Y155500D02*
Y156500D01*
X141500Y155500D02*
X141000Y156000D01*
X140500Y155500D02*
X140000Y156000D01*
X159500Y156500D02*
X160000Y157000D01*
X158500Y156500D02*
Y156550D01*
X141500Y156500D02*
X141000Y157000D01*
X140500Y156500D02*
X140000Y157000D01*
X159500Y157500D02*
X160500D01*
X158500D02*
X158000Y158000D01*
X156500Y157500D02*
X155500D01*
X152950Y158000D02*
X153500Y157500D01*
X154500*
X152500D02*
Y158500D01*
X151500Y157500D02*
X151850Y157950D01*
X149500Y157500D02*
X149000Y158000D01*
X140500Y157500D02*
X140000Y158000D01*
X159500Y158500D02*
X159000Y159000D01*
X158500Y158500*
X157500D02*
X157850Y158950D01*
X156500Y158500D02*
X156900Y158850D01*
X155500Y158500D02*
X155800Y158950D01*
X154500Y158500D02*
X155000Y159000D01*
X153500Y158500D02*
X153800Y158950D01*
X152500Y159500D02*
Y158500D01*
X151500*
Y159500*
X150500Y158500D02*
X151000Y159000D01*
X149500Y158500D02*
X149100Y158900D01*
X148500Y158500D02*
X148000Y159000D01*
X147500Y158500D02*
X147000Y159000D01*
X145500Y158500D02*
X145000Y159000D01*
X144500Y158500D02*
X144000Y158900D01*
X143500Y158500D02*
X143000Y159000D01*
X160000Y160000D02*
X159500Y159500D01*
X158500*
X157500D02*
X158000Y160000D01*
X156500Y159500D02*
X157000Y160000D01*
X155500Y159500D02*
X155950Y160000D01*
X154500Y159500D02*
X154800Y159900D01*
X153500Y159500D02*
X153800Y159950D01*
X152500Y159500D02*
X153000Y160000D01*
X151500Y159500D02*
X151000Y160000D01*
X150000D02*
X149500Y159500D01*
X148500*
X147900Y160100*
X147500Y159500D02*
X147100Y159900D01*
X146500Y159500D02*
X146000Y160000D01*
X145500Y159500D02*
X145000Y160000D01*
X144500Y159500D02*
X143950Y160000D01*
X143500Y159500D02*
X143000Y160000D01*
X142500Y159500D02*
X142000Y160000D01*
X140500Y159500D02*
X140000Y160000D01*
X161000Y147000D02*
X160500Y147500D01*
X161000Y146000D02*
X160500Y146500D01*
X161000Y144000D02*
X160500Y144500D01*
X161000Y143000D02*
X160500Y143500D01*
X161000Y145000D02*
X160500Y145500D01*
X161000Y142000D02*
X160500Y142500D01*
X161000Y150300D02*
X160500Y150500D01*
X161000Y148000D02*
X160500Y148500D01*
Y140500D02*
X160100Y140800D01*
X160500Y148500D02*
X160000Y149000D01*
X160500Y149500D02*
X161000Y149700D01*
X160500Y151500D02*
X161000Y152000D01*
X160500Y152500D02*
X161000Y153000D01*
X160500Y153500D02*
X161000Y154000D01*
X160500Y154500D02*
X161000Y155000D01*
X160500Y155500D02*
X161000Y156000D01*
X160500Y156500D02*
X160900Y156900D01*
X160500Y157500D02*
X161000Y158000D01*
X139500Y160500D02*
X139000Y161000D01*
X155100Y160200D02*
X155500Y160500D01*
X157500D02*
X158000Y161000D01*
X156500Y160500D02*
X156900Y160900D01*
X154500Y160500D02*
X154000Y161000D01*
X153500Y160500D02*
X153000Y161000D01*
X152500Y160500D02*
X152200Y161000D01*
X151500Y160500D02*
X151700Y161000D01*
X150500Y160500D02*
Y161000D01*
X149500Y160500D02*
X149200Y161000D01*
X148500Y160500D02*
X148700Y161000D01*
X147500Y160500D02*
X147000Y161000D01*
X146500Y160500D02*
X146000Y161000D01*
X145500Y160500D02*
X145400Y161000D01*
X144500Y160500D02*
X144900Y160900D01*
X143500Y160500D02*
X143900Y160900D01*
X142500Y160500D02*
X142000Y161000D01*
X160500Y160500D02*
X161000Y161000D01*
X139000Y139000D03*
X144000D03*
X157000D03*
X143000D03*
X156000D03*
X154000D03*
X145000D03*
X153000D03*
X152000D03*
X146000D03*
X147300D03*
X158000D03*
X142000D03*
X151000D03*
X148000D03*
X150000D03*
X161000D03*
X139000Y154000D03*
Y147000D03*
Y146000D03*
Y144000D03*
Y156200D03*
Y155700D03*
Y153000D03*
Y143000D03*
Y155000D03*
Y157000D03*
Y145000D03*
Y142000D03*
Y148000D03*
Y152000D03*
Y150300D03*
Y149700D03*
X142900Y144900D03*
X142000Y146000D03*
X152000Y159500D03*
X157000Y151850D03*
X157950Y154050D03*
X158000Y158000D03*
X142800Y158100D03*
X143000Y155300D03*
X142000Y154000D03*
Y158000D03*
X140000Y145000D03*
X153400Y143000D03*
X158000Y146050D03*
X146450Y143050D03*
X154000Y150000D03*
X150000Y154000D03*
X145900Y150100D03*
X155350Y156750D03*
X139900Y145900D03*
X142000Y142000D03*
X159000Y149500D03*
X140000Y153000D03*
X158100Y152100D03*
X160000Y153000D03*
X159100Y153100D03*
X158950Y151850D03*
X159000Y151000D03*
X149200Y155600D03*
X152350Y155450D03*
X147150Y155350D03*
X150500Y155600D03*
X155550Y151300D03*
X155350Y152850D03*
X155600Y149200D03*
X155400Y147350D03*
X144600Y147250D03*
X144400Y149250D03*
X144500Y151500D03*
X144700Y153050D03*
X160000Y155000D03*
Y156000D03*
X156950Y150500D03*
X159000Y154000D03*
X160000Y157000D03*
X156900Y152800D03*
X160100Y159100D03*
Y158100D03*
X142000Y149000D03*
X140000Y143000D03*
X142000Y147000D03*
X140000Y147100D03*
X141100Y147000D03*
X141000Y148000D03*
X140000Y144000D03*
X141000Y142000D03*
Y143000D03*
Y149000D03*
Y146000D03*
Y145000D03*
Y154000D03*
X140000Y155000D03*
Y156000D03*
Y154000D03*
X141000Y157000D03*
X140000Y158000D03*
Y157000D03*
X141100Y152900D03*
X141000Y151900D03*
Y151000D03*
X157850Y158950D03*
X156900Y158850D03*
X157000Y160000D03*
X158000D03*
X155000Y159000D03*
X153800Y158950D03*
X154800Y159900D03*
X142000Y160000D03*
X155950D03*
X143000Y159000D03*
Y160000D03*
X145000D03*
X144700Y157000D03*
X146000Y160000D03*
X143950D03*
X145000Y140000D03*
X147000Y159000D03*
X145000Y141000D03*
X146150Y141050D03*
X146000Y140000D03*
X142000D03*
X143000Y141000D03*
X144000Y140000D03*
X142000Y141000D03*
X143000Y140000D03*
X145000Y159000D03*
X159000Y148000D03*
X160000Y146900D03*
X158950Y147150D03*
X158000Y146950D03*
X160000Y146000D03*
X159000Y142000D03*
X160000D03*
Y143000D03*
Y145000D03*
X156900Y149500D03*
X160100Y141200D03*
X159000Y144900D03*
Y143000D03*
X154000Y141000D03*
X157900Y141100D03*
X154000Y140000D03*
X158000D03*
X157000D03*
X156000D03*
X156800Y141050D03*
X155000Y140000D03*
X152500Y144600D03*
X148000Y154650D03*
X149800Y154800D03*
X152400Y154600D03*
X146850Y144700D03*
X148650Y144450D03*
X151850Y157950D03*
X141200Y160100D03*
X140800D03*
X139900Y158800D03*
Y159200D03*
X152600Y156950D03*
X141000Y156000D03*
X148000Y154000D03*
X152000D03*
X151000D03*
X149000D03*
X154000Y151000D03*
Y149000D03*
Y148000D03*
X146000D03*
X152052Y146058D03*
X147948D03*
X154300Y145850D03*
X145750Y145800D03*
X154200Y154200D03*
X154000Y152000D03*
X146000D03*
X145750Y154300D03*
X145000Y145150D03*
X144900Y155000D03*
X154850Y154900D03*
X159250Y160050D03*
X158750D03*
X154900Y145150D03*
X148000Y159000D03*
Y158000D03*
X149000D03*
X150500Y157000D03*
X151000Y159000D03*
X150100Y159100D03*
X149100Y158900D03*
X155800Y158950D03*
X152950Y158000D03*
X146000D03*
X153800Y159950D03*
X147100Y159900D03*
X144000Y158900D03*
X141000Y159000D03*
X143600Y156400D03*
X159000Y159000D03*
X156400Y156400D03*
X157100Y155100D03*
X159000Y156000D03*
X160000Y152000D03*
X142000D03*
X139900D03*
X140000Y148100D03*
X141000Y144000D03*
X160000Y148000D03*
X159000Y144000D03*
X156950Y144650D03*
X144850Y142950D03*
X154900Y143100D03*
X158000Y148000D03*
X142000D03*
X156000Y141000D03*
X152000D03*
Y143000D03*
Y140000D03*
X147000D03*
X143900Y141000D03*
X148050Y143000D03*
X148000Y141000D03*
X160100Y140800D03*
X159000Y141000D03*
X159200Y139900D03*
X158800D03*
X141000Y141000D03*
X141200Y139900D03*
X140800D03*
X139950Y141850D03*
X140000Y141000D03*
X159950Y150950D03*
X160000Y149000D03*
X151000Y140000D03*
Y141000D03*
X152000Y142000D03*
X140000Y151000D03*
X148000Y140000D03*
X149000Y141000D03*
X148000Y142000D03*
X149000Y140000D03*
X150100Y140100D03*
X139900Y148900D03*
X150000Y160000D03*
X140000D03*
X160000D03*
X147900Y160100D03*
X153000Y160000D03*
X151000D03*
X140000Y140000D03*
X156400Y143600D03*
X143650Y143650D03*
X149100Y146000D03*
X160000Y140000D03*
X151000Y146050D03*
X150200Y145950D03*
X149800Y145850D03*
X150000Y145200D03*
X150500Y143200D03*
X149450D03*
X150000Y147500D03*
X146000Y149000D03*
Y151000D03*
X150000Y147000D03*
Y148000D03*
Y152000D03*
Y153000D03*
Y151000D03*
X147000Y150000D03*
X148000D03*
X149000D03*
X150000Y149000D03*
Y150000D03*
X151000D03*
X153000D03*
X152000D03*
X149000Y148000D03*
Y147000D03*
X148000D03*
X147000D03*
X148000Y148000D03*
X147000D03*
Y149000D03*
X148000D03*
X149000D03*
X148000Y151000D03*
X147000D03*
Y152000D03*
Y153000D03*
X148000Y152000D03*
Y153000D03*
X149000D03*
Y152000D03*
Y151000D03*
X151000Y152000D03*
Y153000D03*
X152000D03*
X153000D03*
X152000Y152000D03*
X153000D03*
Y151000D03*
X151000D03*
X152000Y149000D03*
X153000D03*
X152000Y148000D03*
X153000D03*
Y147000D03*
X152000D03*
X151000D03*
Y148000D03*
X152000Y151000D03*
X151000Y149000D03*
X161000Y156000D03*
X160900Y156900D03*
X161000Y153000D03*
Y154000D03*
Y147000D03*
Y146000D03*
Y144000D03*
Y143000D03*
Y158000D03*
Y155000D03*
Y145000D03*
Y142000D03*
Y152000D03*
Y150300D03*
Y149700D03*
Y148000D03*
X139000Y161000D03*
X156900Y160900D03*
X143900D03*
X144900D03*
X145400Y161000D03*
X146000D03*
X155100Y160200D03*
X154000Y161000D03*
X158000D03*
X142000D03*
X151700D03*
X148700D03*
X149200D03*
X152200D03*
X147000D03*
X150500D03*
X153000D03*
X161000D03*
G54D23*
X138000Y138000D02*
X162000D01*
Y162000*
X138500*
X138000Y161500*
Y138000*
G54D24*
X135000Y170000D02*
Y170127D01*
Y170000D02*
X135127D01*
X135000D02*
Y169873D01*
Y170000D02*
X134873D01*
X135381D02*
X136651D01*
X135000Y169619D02*
Y168755D01*
Y170381D02*
Y171524D01*
X133476Y170000D02*
X134619D01*
X135762D02*
G75*
G03X135762I-762J0D01*
G01X135508D02*
G03X135508I-508J0D01*
G01X135000Y120000D02*
Y120127D01*
Y120000D02*
X135127D01*
X135000D02*
Y119873D01*
Y120000D02*
X134873D01*
X135381D02*
X136651D01*
X135000Y119619D02*
Y118755D01*
Y120381D02*
Y121524D01*
X133476Y120000D02*
X134619D01*
X135762D02*
G03X135762I-762J0D01*
G01X135508D02*
G03X135508I-508J0D01*
G01X165000Y170000D02*
Y170127D01*
Y170000D02*
X165127D01*
X165000D02*
Y169873D01*
Y170000D02*
X164873D01*
X165381D02*
X166651D01*
X165000Y169619D02*
Y168755D01*
Y170381D02*
Y171524D01*
X163476Y170000D02*
X164619D01*
X165762D02*
G03X165762I-762J0D01*
G01X165508D02*
G03X165508I-508J0D01*
G54D25*
G01X139500Y160500D03*
X140500D03*
X141500D03*
X142500D03*
X143500D03*
X144500D03*
X145500D03*
X146500D03*
X147500D03*
X148500D03*
X149500D03*
X150500D03*
X151500D03*
X152500D03*
X153500D03*
X154500D03*
X155500D03*
X156500D03*
X157500D03*
X158500D03*
X159500D03*
X160500D03*
X139500Y159500D03*
X140500D03*
X141500D03*
X142500D03*
X143500D03*
X144500D03*
X145500D03*
X146500D03*
X147500D03*
X148500D03*
X149500D03*
X150500D03*
X151500D03*
X152500D03*
X153500D03*
X154500D03*
X155500D03*
X156500D03*
X157500D03*
X158500D03*
X159500D03*
X160500D03*
X139500Y158500D03*
X140500D03*
X141500D03*
X142500D03*
X143500D03*
X144500D03*
X145500D03*
X146500D03*
X147500D03*
X148500D03*
X149500D03*
X150500D03*
X151500D03*
X152500D03*
X153500D03*
X154500D03*
X155500D03*
X156500D03*
X157500D03*
X158500D03*
X159500D03*
X160500D03*
X139500Y157500D03*
X140500D03*
X141500D03*
X142500D03*
X143500D03*
X144500D03*
X145500D03*
X146500D03*
X147500D03*
X148500D03*
X149500D03*
X150500D03*
X151500D03*
X152500D03*
X153500D03*
X154500D03*
X155500D03*
X156500D03*
X157500D03*
X158500D03*
X159500D03*
X160500D03*
X139500Y156500D03*
X140500D03*
X141500D03*
X142500D03*
X157500D03*
X158500D03*
X159500D03*
X160500D03*
X139500Y155500D03*
X140500D03*
X141500D03*
X142500D03*
X157500D03*
X158500D03*
X159500D03*
X160500D03*
X139500Y154500D03*
X140500D03*
X141500D03*
X142500D03*
X157500D03*
X158500D03*
X159500D03*
X160500D03*
X139500Y153500D03*
X140500D03*
X141500D03*
X142500D03*
X146500D03*
X147500D03*
X148500D03*
X149500D03*
X150500D03*
X151500D03*
X152500D03*
X153500D03*
X157500D03*
X158500D03*
X159500D03*
X160500D03*
X139500Y152500D03*
X140500D03*
X141500D03*
X142500D03*
X146500D03*
X147500D03*
X148500D03*
X149500D03*
X150500D03*
X151500D03*
X152500D03*
X153500D03*
X157500D03*
X158500D03*
X159500D03*
X160500D03*
X139500Y151500D03*
X140500D03*
X141500D03*
X142500D03*
X146500D03*
X147500D03*
X148500D03*
X149500D03*
X150500D03*
X151500D03*
X152500D03*
X153500D03*
X157500D03*
X158500D03*
X159500D03*
X160500D03*
X139500Y150500D03*
X140500D03*
X141500D03*
X142500D03*
X146500D03*
X147500D03*
X148500D03*
X149500D03*
X150500D03*
X151500D03*
X152500D03*
X153500D03*
X157500D03*
X158500D03*
X159500D03*
X160500D03*
X139500Y149500D03*
X140500D03*
X141500D03*
X142500D03*
X146500D03*
X147500D03*
X148500D03*
X149500D03*
X150500D03*
X151500D03*
X152500D03*
X153500D03*
X157500D03*
X158500D03*
X159500D03*
X160500D03*
X139500Y148500D03*
X140500D03*
X141500D03*
X142500D03*
X146500D03*
X147500D03*
X148500D03*
X149500D03*
X150500D03*
X151500D03*
X152500D03*
X153500D03*
X157500D03*
X158500D03*
X159500D03*
X160500D03*
X139500Y147500D03*
X140500D03*
X141500D03*
X142500D03*
X146500D03*
X147500D03*
X148500D03*
X149500D03*
X150500D03*
X151500D03*
X152500D03*
X153500D03*
X157500D03*
X158500D03*
X159500D03*
X160500D03*
X139500Y146500D03*
X140500D03*
X141500D03*
X142500D03*
X146500D03*
X147500D03*
X148500D03*
X149500D03*
X150500D03*
X151500D03*
X152500D03*
X153500D03*
X157500D03*
X158500D03*
X159500D03*
X160500D03*
X139500Y145500D03*
X140500D03*
X141500D03*
X142500D03*
X157500D03*
X158500D03*
X159500D03*
X160500D03*
X139500Y144500D03*
X140500D03*
X141500D03*
X142500D03*
X157500D03*
X158500D03*
X159500D03*
X160500D03*
X139500Y143500D03*
X140500D03*
X141500D03*
X142500D03*
X157500D03*
X158500D03*
X159500D03*
X160500D03*
X139500Y142500D03*
X140500D03*
X141500D03*
X142500D03*
X143500D03*
X144500D03*
X145500D03*
X146500D03*
X147500D03*
X148500D03*
X149500D03*
X150500D03*
X151500D03*
X152500D03*
X153500D03*
X154500D03*
X155500D03*
X156500D03*
X157500D03*
X158500D03*
X159500D03*
X160500D03*
X139500Y141500D03*
X140500D03*
X141500D03*
X142500D03*
X143500D03*
X144500D03*
X145500D03*
X146500D03*
X147500D03*
X148500D03*
X149500D03*
X150500D03*
X151500D03*
X152500D03*
X153500D03*
X154500D03*
X155500D03*
X156500D03*
X157500D03*
X158500D03*
X159500D03*
X160500D03*
X139500Y140500D03*
X140500D03*
X141500D03*
X142500D03*
X143500D03*
X144500D03*
X145500D03*
X146500D03*
X147500D03*
X148500D03*
X149500D03*
X150500D03*
X151500D03*
X152500D03*
X153500D03*
X154500D03*
X155500D03*
X156500D03*
X157500D03*
X158500D03*
X159500D03*
X160500D03*
X139500Y139500D03*
X140500D03*
X141500D03*
X142500D03*
X143500D03*
X144500D03*
X145500D03*
X146500D03*
X147500D03*
X148500D03*
X149500D03*
X150500D03*
X151500D03*
X152500D03*
X153500D03*
X154500D03*
X155500D03*
X156500D03*
X157500D03*
X158500D03*
X159500D03*
X160500D03*
G54D32*
X151000Y139000D02*
X151500Y139500D01*
X148000Y139000D02*
X148500Y139500D01*
X151000Y140000D02*
X151500Y139500D01*
Y140000*
X148000D02*
X148500Y139500D01*
Y140000*
X146500Y158000D02*
Y158500D01*
X156800Y156800D02*
X157100Y157100D01*
X157500Y157500*
X156800Y156800D02*
X156500Y156500D01*
X157500*
X141500Y158000D02*
Y158500D01*
X141000D02*
X141450D01*
X141475Y158525*
X141500Y159000D02*
Y159500D01*
X141475Y158525D02*
X141000Y159000D01*
X148500Y140000D02*
Y140450D01*
X148475Y140475*
X148500Y141000D02*
Y141500D01*
Y142000D02*
Y142500D01*
X148475Y140475D02*
X148500Y140500D01*
X144850Y142500D02*
X144500D01*
X151500Y142000D02*
Y142500D01*
Y140000D02*
Y140500D01*
Y141000D02*
Y141500D01*
X151525Y141525*
X152000Y142000*
X157500Y145000D02*
Y145500D01*
X155000Y142500D02*
X155500D01*
X158500Y156000D02*
Y156550D01*
X146000Y157500D02*
X145500D01*
X143000D02*
X143500D01*
X148000D02*
X147500D01*
X143500Y142500D02*
X143000D01*
X143650Y143650*
X142000Y158000D02*
X141500Y158500D01*
X156500Y142500D02*
X157000D01*
X156400Y143600*
X146000Y158000D02*
X146500Y158500D01*
X141000Y159000D02*
X141500Y159500D01*
X142500Y157500D02*
X143600Y156400D01*
X143500Y157500*
X143600Y156400D02*
X143000Y157500D01*
X156400Y156400D02*
X156500Y156500D01*
X157100Y155100D02*
X157500Y155500D01*
X159000Y156000D02*
X158500Y156500D01*
X157500Y145500D02*
X156950Y144650D01*
X157500Y145000*
X151000Y140000D02*
X151500Y140500D01*
X151000Y141000D02*
X151500Y141500D01*
X152000Y142000D02*
X151500Y142500D01*
X148000Y140000D02*
X148475Y140475D01*
X149000Y141000D02*
X148500Y141500D01*
X148000Y142000D02*
X148500Y142500D01*
X151000Y141000D02*
X151500Y140500D01*
Y141000*
X149000D02*
X148500Y140500D01*
Y141000*
X151525Y141525D02*
X151500Y141500D01*
Y142000*
X148000D02*
X148500Y141500D01*
Y142000*
X156400Y143600D02*
X157500Y142500D01*
X157000*
X156500D02*
X156400Y143600D01*
X155500Y142500D02*
X154900Y143100D01*
X154500Y142500*
X155000*
X144850Y142950D02*
X145500Y142500D01*
X144850*
X144500D02*
X144850Y142950D01*
X143500Y142500D02*
X143650Y143650D01*
X142500Y142500*
X143000*
X157500Y144500D02*
Y143500D01*
X156950Y144650*
X157500Y144500*
Y145000*
X157100Y155100D02*
X157500Y154500D01*
Y155500*
X159000Y156000D02*
X158500Y155500D01*
Y156000*
X157500Y157500D02*
Y156500D01*
X157100Y157100*
X157500Y156500D02*
X156800Y156800D01*
X148000Y158000D02*
X148500Y157500D01*
X148000*
X147500D02*
X148000Y158000D01*
X146000D02*
X146500Y157500D01*
X146000*
X146500D02*
Y158000D01*
X145500Y157500D02*
X146000Y158000D01*
X142500Y157500D02*
X143000D01*
X142000Y158000D02*
X141500Y157500D01*
Y158000*
X141475Y158525D02*
X141500Y158500D01*
Y159000*
X141000D02*
X140500Y158500D01*
X141000*
G54D33*
X149500Y139500D02*
Y140500D01*
X150500Y141500D02*
Y142500D01*
X149500Y141500D02*
Y142500D01*
G74*
X0Y0D02*
M02*
